#!OML:ASF H:\ColoradoDance\Project 1\Capture day 1\Session 8\male.ASF
:FULLY-SPECIFIED
:DEGREES
63
upperback -2.750890 -0.434957 -0.031710
rfoot -31.313700 -11.043700
lradius 75.208801
lthumb 15.019600 41.487999
rradius 78.342796
lwrist -7.745420
rhand -28.392900 37.765900
rhumerus 50.168701 -36.213501 -20.585300
lowerneck -7.361920 -1.184810 3.270790
lhand -11.001000 12.052800
ltibia 27.611401
head 3.846450 -0.885712 -0.801873
rwrist 25.014799
lfingers 7.125020
rtoes -8.800590
lowerback 4.487300 -0.358603 0.840607
rfingers 7.125020
lclavicle -0.000000 0.000000
upperneck 7.870590 -1.944250 -0.338281
rfemur -22.510099 0.952126 32.187500
thorax -5.374180 -0.251543 -0.464518
rclavicle -0.000000 0.000000
rtibia 53.477001
lfoot 3.243380 10.016800
lhumerus 61.401001 31.094601 27.028999
rthumb -1.765370 7.793510
root -5.557030 18.273500 -8.283320 -296.919006 -84.543800 -62.956001
ltoes -17.475300
lfemur -35.535000 -13.193900 1.195120
64
upperback -2.825410 -0.150378 0.344268
rfoot -29.805700 -9.452620
lradius 72.443001
lthumb 14.298800 42.385101
rradius 73.844498
lwrist -7.809970
rhand -28.270700 35.897301
rhumerus 50.176701 -37.962299 -21.919600
lowerneck -7.145580 -1.147950 3.284620
lhand -11.749000 12.897400
ltibia 57.124699
head 3.767700 -0.858956 -0.796659
rwrist 25.002501
lfingers 7.125020
rtoes -9.685800
lowerback 4.224270 -0.182190 1.382280
rfingers 7.125020
lclavicle 0.000000 -0.000000
upperneck 7.765860 -1.887570 -0.336349
rfemur -21.993601 0.383648 32.434799
thorax -5.298800 -0.124212 -0.404845
rclavicle 0.000000 -0.000000
rtibia 50.975700
lfoot -12.113300 -1.833480
lhumerus 58.979801 32.843201 26.812300
rthumb -1.647400 5.923940
root -5.378230 18.423800 -8.182370 -286.231995 -84.078300 -73.487503
ltoes -23.039000
lfemur -37.158001 -3.466350 -6.722400
65
upperback -3.431930 -0.161157 0.681087
rfoot -29.241501 -8.787470
lradius 64.793900
lthumb 13.647600 44.028099
rradius 65.241402
lwrist -9.896850
rhand -28.137899 37.297401
rhumerus 46.620899 -39.394001 -20.899900
lowerneck -5.743880 -0.946789 3.512200
lhand -12.424800 14.495500
ltibia 60.713299
head 3.259900 -0.710633 -0.895713
rwrist 23.708900
lfingers 7.125020
rtoes -10.873000
lowerback 2.315840 -0.160990 1.244040
rfingers 7.125020
lclavicle 0.000000 0.000000
upperneck 7.081980 -1.555200 -0.638959
rfemur -21.010500 1.405570 31.189400
thorax -4.842370 -0.126063 0.018274
rclavicle 0.000000 0.000000
rtibia 49.014099
lfoot -20.698299 -4.585150
lhumerus 53.324799 35.240200 23.899000
rthumb -1.519110 7.323070
root -5.479050 18.552401 -7.895860 -279.071014 -84.292503 -80.175797
ltoes -12.116000
lfemur -26.847601 1.370160 -12.356800
66
upperback -3.307480 -0.054139 0.211607
rfoot -30.264601 -9.022330
lradius 51.517300
lthumb 12.961100 47.101601
rradius 52.973900
lwrist -11.271400
rhand -30.001499 35.715099
rhumerus 44.554901 -40.611099 -19.089600
lowerneck -5.452990 -0.900610 3.487160
lhand -13.137000 17.524200
ltibia 49.810902
head 3.283760 -0.675779 -0.926548
rwrist 22.917101
lfingers 7.125020
rtoes -13.782100
lowerback 1.436760 -0.041094 0.701740
rfingers 7.125020
lclavicle 0.000000 -0.000000
upperneck 7.309070 -1.475770 -0.760106
rfemur -19.675699 1.926140 27.595600
thorax -4.210680 -0.059926 -0.171347
rclavicle 0.000000 -0.000000
rtibia 49.777802
lfoot -29.905500 -1.310260
lhumerus 51.252201 37.252399 23.265800
rthumb -3.318910 5.761180
root -5.640970 18.563299 -7.398170 -278.062988 -85.985603 -82.060699
ltoes -14.909300
lfemur -18.818300 0.929331 -16.410500
67
upperback -3.272490 -0.011279 -0.011118
rfoot -30.676500 -9.122880
lradius 38.957401
lthumb 10.938700 52.665501
rradius 41.116100
lwrist -10.324200
rhand -30.808599 30.276899
rhumerus 45.209099 -40.949501 -19.801600
lowerneck -5.858920 -0.965458 3.588720
lhand -15.234400 22.970501
ltibia 46.440899
head 3.922610 -0.731758 -1.067590
rwrist 22.053900
lfingers 7.125020
rtoes -16.856199
lowerback 0.957086 0.015108 0.068808
rfingers 7.125020
lclavicle 0.000000 -0.000000
upperneck 8.918610 -1.591770 -1.042740
rfemur -17.715799 1.583430 24.349199
thorax -3.901590 -0.022068 -0.048539
rclavicle 0.000000 -0.000000
rtibia 50.247398
lfoot -30.308599 0.387348
lhumerus 50.942402 37.377899 23.500401
rthumb -4.098300 0.336576
root -5.799230 18.595400 -6.859160 -281.563995 -87.197899 -79.968201
ltoes -11.941000
lfemur -14.882600 -0.891861 -19.987101
68
upperback -3.390010 -0.197716 0.169262
rfoot -26.254299 -5.039110
lradius 30.718201
lthumb 11.578000 55.352600
rradius 29.497801
lwrist -10.645300
rhand -29.497999 21.847300
rhumerus 45.436600 -41.638100 -17.807899
lowerneck -6.468680 -0.720259 3.904770
lhand -14.571500 25.692400
ltibia 43.996101
head 3.949740 -0.578068 -1.276350
rwrist 18.992399
lfingers 7.125020
rtoes -20.391701
lowerback 1.605450 -0.141840 0.481457
rfingers 7.125020
lclavicle 0.000000 0.000000
upperneck 8.632080 -1.259250 -1.534370
rfemur -19.364901 1.318860 22.198200
thorax -4.392850 -0.125689 -0.083459
rclavicle 0.000000 0.000000
rtibia 53.667500
lfoot -29.204599 0.858925
lhumerus 50.707500 40.020401 22.674101
rthumb -2.832610 -8.113660
root -5.897820 18.708799 -6.470650 -279.678986 -87.140800 -81.942703
ltoes -8.460570
lfemur -13.253900 -1.463880 -21.375500
69
upperback -2.976690 -0.267957 0.341164
rfoot -15.992200 -1.933340
lradius 27.115000
lthumb 10.783300 58.048698
rradius 22.826200
lwrist -10.025500
rhand -31.513201 16.810600
rhumerus 40.138000 -39.724899 -12.833800
lowerneck -6.253200 -0.630449 4.002150
lhand -15.395500 28.345501
ltibia 41.670502
head 3.707420 -0.514896 -1.320420
rwrist 13.854700
lfingers 7.125020
rtoes -19.101200
lowerback 1.876470 -0.209922 0.621274
rfingers 7.125020
lclavicle -0.000000 0.000000
upperneck 8.055230 -1.120190 -1.665690
rfemur -24.153400 1.597910 21.189899
thorax -4.117300 -0.157267 0.018632
rclavicle -0.000000 0.000000
rtibia 59.589401
lfoot -27.465700 2.696770
lhumerus 51.375500 42.538399 23.698601
rthumb -4.778690 -13.115500
root -5.858940 18.860100 -6.226210 -278.214996 -86.693398 -82.974297
ltoes -6.488030
lfemur -12.770800 -3.609890 -22.007000
70
upperback -2.972880 -0.274488 0.449820
rfoot -3.484540 -2.116110
lradius 24.050800
lthumb 11.462500 58.125301
rradius 21.070700
lwrist -11.741800
rhand -30.090799 11.552000
rhumerus 36.074501 -36.988201 -9.624550
lowerneck -5.583770 -0.798110 3.886060
lhand -14.691300 28.458700
ltibia 36.545601
head 3.737100 -0.615617 -1.336680
rwrist 9.624320
lfingers 7.125020
rtoes -14.775800
lowerback 1.979790 -0.213647 0.448665
rfingers 7.125020
lclavicle 0.000000 -0.000000
upperneck 8.532070 -1.310480 -1.755530
rfemur -29.391600 2.331560 19.948999
thorax -4.170620 -0.153127 0.228140
rclavicle 0.000000 -0.000000
rtibia 65.238800
lfoot -25.124001 1.943300
lhumerus 50.355301 41.923599 24.303301
rthumb -3.405140 -18.400600
root -5.712580 19.089300 -6.045950 -289.092010 -86.558502 -72.080803
ltoes -5.435280
lfemur -10.785800 -3.610360 -22.418699
71
upperback -2.809760 -0.619847 0.567734
rfoot 13.802800 -8.820770
lradius 21.595699
lthumb 12.872800 59.154301
rradius 20.589199
lwrist -13.371200
rhand -29.097799 5.814000
rhumerus 37.551899 -37.861599 -11.209800
lowerneck -5.088390 -0.706932 4.083560
lhand -13.228600 29.571301
ltibia 29.534700
head 3.666300 -0.549854 -1.444040
rwrist 11.781400
lfingers 7.125020
rtoes 1.131670
lowerback 2.322950 -0.483374 0.575944
rfingers 7.125020
lclavicle -0.000000 0.000000
upperneck 8.593790 -1.167950 -2.007240
rfemur -36.270599 2.918670 19.823999
thorax -4.195970 -0.325302 0.299796
rclavicle -0.000000 0.000000
rtibia 71.474701
lfoot -20.680201 4.510140
lhumerus 51.480801 43.270302 26.299801
rthumb -2.446200 -24.151699
root -5.647250 19.367800 -5.905880 -294.371002 -86.319801 -67.497398
ltoes -4.717850
lfemur -6.824830 -6.065290 -23.173000
